<mxfile host="app.diagrams.net" modified="2022-02-08T07:06:39.563Z" agent="5.0 (X11)" etag="ptxSiqi-dy0b3p64clLZ" version="16.5.3" type="github">
  <diagram id="aBNTrtRrgTnvcZmH2X1p" name="Page-1">
    <mxGraphModel dx="2568" dy="983" grid="1" gridSize="10" guides="1" tooltips="1" connect="1" arrows="1" fold="1" page="1" pageScale="1" pageWidth="850" pageHeight="1100" math="0" shadow="0">
      <root>
        <mxCell id="0" />
        <mxCell id="1" parent="0" />
        <mxCell id="z0jYmmz8D5tQBdlxhoIj-1" value="s_rst" style="ellipse;shape=doubleEllipse;whiteSpace=wrap;html=1;aspect=fixed;" vertex="1" parent="1">
          <mxGeometry x="200" y="240" width="80" height="80" as="geometry" />
        </mxCell>
        <mxCell id="z0jYmmz8D5tQBdlxhoIj-2" value="s_idle" style="ellipse;whiteSpace=wrap;html=1;aspect=fixed;" vertex="1" parent="1">
          <mxGeometry x="400" y="360" width="80" height="80" as="geometry" />
        </mxCell>
        <mxCell id="z0jYmmz8D5tQBdlxhoIj-3" value="&lt;div&gt;&lt;b&gt;Ports:&lt;/b&gt;&lt;/div&gt;&lt;ul&gt;&lt;li&gt;spi_rw: in std_logic&lt;/li&gt;&lt;li&gt;spi_cs: in std_logic&lt;/li&gt;&lt;li&gt;spi_addr: in std_logic_vector&lt;/li&gt;&lt;li&gt;spi_din: in std_logic_vector&lt;/li&gt;&lt;li&gt;spi_dout: out std_logic_vector&lt;/li&gt;&lt;li&gt;spi_irq: out std_logic (assigned concurrently)&lt;br&gt;&lt;/li&gt;&lt;/ul&gt;&lt;div&gt;&lt;b&gt;Types:&lt;/b&gt;&lt;/div&gt;&lt;div&gt;&lt;ul&gt;&lt;li&gt;AXIS_SHIFT_REG_TYPE&lt;br&gt;&lt;/li&gt;&lt;/ul&gt;&lt;/div&gt;&lt;div&gt;&lt;b&gt;Constant:&lt;/b&gt;&lt;/div&gt;&lt;div&gt;&lt;ul&gt;&lt;b&gt;&lt;/b&gt;&lt;li&gt;TRANSMIT_CNT_MAX&lt;br&gt;&lt;/li&gt;&lt;/ul&gt;&lt;/div&gt;&lt;div&gt;&lt;b&gt;Signals&lt;/b&gt;:&lt;br&gt;&lt;ul&gt;&lt;li&gt;data_low_int: std_logic_vector&lt;/li&gt;&lt;li&gt;data_high_int: std_logic_vector&lt;/li&gt;&lt;li&gt;cmd_int : std_logic_vector&lt;/li&gt;&lt;li&gt;cfg_int: std_logic_vector&lt;/li&gt;&lt;li&gt;curr_mag: unsigned&lt;/li&gt;&lt;li&gt;curr_axis_wr: unsigned&lt;/li&gt;&lt;li&gt;start: std_logic&lt;/li&gt;&lt;li&gt;spi_irq_int: std_logic&lt;/li&gt;&lt;li&gt;axis_shift_reg: AXIS_SHIFT_REG_TYPE&lt;/li&gt;&lt;li&gt;rnd_cnt : unsigned&lt;/li&gt;&lt;li&gt;transmit_cnt: unsigned&lt;br&gt;&lt;/li&gt;&lt;/ul&gt;&lt;div&gt;&lt;b&gt;Concurrent statements:&lt;/b&gt;&lt;/div&gt;&lt;div&gt;&lt;ul&gt;&lt;b&gt;&lt;/b&gt;&lt;li&gt;spi_irq &amp;lt;= spi_irq_int&lt;/li&gt;&lt;li&gt;curr_mag &amp;lt;= cmd_int(6 downto 5)&lt;/li&gt;&lt;li&gt;curr_axis_wr &amp;lt;= data_high_int(0) &amp;amp; data_low_int(7)&lt;/li&gt;&lt;li&gt;start &amp;lt;= cmd_int&lt;/li&gt;&lt;li&gt;statement to set spi_dout&lt;br&gt;&lt;/li&gt;&lt;/ul&gt;&lt;/div&gt;&lt;div&gt;&lt;b&gt;Auxiliary processes:&lt;/b&gt;&lt;/div&gt;&lt;div&gt;&lt;ul&gt;&lt;li&gt;Process to update internal registers when module is written to based on addresses&lt;/li&gt;&lt;li&gt;Process to count up random counter&lt;br&gt;&lt;/li&gt;&lt;/ul&gt;&lt;/div&gt;&lt;/div&gt;" style="rounded=0;whiteSpace=wrap;html=1;align=left;" vertex="1" parent="1">
          <mxGeometry x="910" y="215" width="350" height="610" as="geometry" />
        </mxCell>
        <mxCell id="z0jYmmz8D5tQBdlxhoIj-4" value="" style="curved=1;endArrow=classic;html=1;rounded=0;" edge="1" parent="1" source="z0jYmmz8D5tQBdlxhoIj-1" target="z0jYmmz8D5tQBdlxhoIj-2">
          <mxGeometry width="50" height="50" relative="1" as="geometry">
            <mxPoint x="240" y="410" as="sourcePoint" />
            <mxPoint x="290" y="360" as="targetPoint" />
            <Array as="points">
              <mxPoint x="370" y="300" />
            </Array>
          </mxGeometry>
        </mxCell>
        <mxCell id="z0jYmmz8D5tQBdlxhoIj-5" value="" style="curved=1;endArrow=classic;html=1;rounded=0;" edge="1" parent="1" source="z0jYmmz8D5tQBdlxhoIj-2" target="z0jYmmz8D5tQBdlxhoIj-6">
          <mxGeometry width="50" height="50" relative="1" as="geometry">
            <mxPoint x="440" y="520" as="sourcePoint" />
            <mxPoint x="490" y="470" as="targetPoint" />
            <Array as="points">
              <mxPoint x="410" y="510" />
            </Array>
          </mxGeometry>
        </mxCell>
        <mxCell id="z0jYmmz8D5tQBdlxhoIj-6" value="s_transmit" style="ellipse;whiteSpace=wrap;html=1;aspect=fixed;" vertex="1" parent="1">
          <mxGeometry x="240" y="520" width="80" height="80" as="geometry" />
        </mxCell>
        <mxCell id="z0jYmmz8D5tQBdlxhoIj-7" value="&lt;div&gt;if (start = &#39;1&#39;) /&lt;/div&gt;&lt;div&gt;transmit_cnt &amp;lt;= 0&lt;/div&gt;&lt;div&gt;data_high_out &amp;lt;=&quot;00&quot; &amp;amp; axis_shift_reg(curr_mag)(3 downto 2) &amp;amp; rnd_cnt(11 downto 8)&lt;/div&gt;&lt;div&gt;data_low_out &amp;lt;= rnd_cnt(7 downto 0)&lt;br&gt;&lt;/div&gt;" style="text;html=1;align=center;verticalAlign=middle;resizable=0;points=[];autosize=1;strokeColor=none;fillColor=none;" vertex="1" parent="1">
          <mxGeometry x="360" y="490" width="470" height="60" as="geometry" />
        </mxCell>
        <mxCell id="z0jYmmz8D5tQBdlxhoIj-8" value="" style="curved=1;endArrow=classic;html=1;rounded=0;" edge="1" parent="1" source="z0jYmmz8D5tQBdlxhoIj-6" target="z0jYmmz8D5tQBdlxhoIj-6">
          <mxGeometry width="50" height="50" relative="1" as="geometry">
            <mxPoint x="170" y="690" as="sourcePoint" />
            <mxPoint x="220" y="640" as="targetPoint" />
            <Array as="points">
              <mxPoint x="280" y="640" />
              <mxPoint x="230" y="630" />
            </Array>
          </mxGeometry>
        </mxCell>
        <mxCell id="z0jYmmz8D5tQBdlxhoIj-9" value="/ transmit_cnt &amp;lt;= transmit_cnt + 1" style="text;html=1;align=center;verticalAlign=middle;resizable=0;points=[];autosize=1;strokeColor=none;fillColor=none;" vertex="1" parent="1">
          <mxGeometry x="180" y="640" width="190" height="20" as="geometry" />
        </mxCell>
        <mxCell id="z0jYmmz8D5tQBdlxhoIj-10" value="s_irq" style="ellipse;whiteSpace=wrap;html=1;aspect=fixed;" vertex="1" parent="1">
          <mxGeometry y="480" width="80" height="80" as="geometry" />
        </mxCell>
        <mxCell id="z0jYmmz8D5tQBdlxhoIj-11" value="" style="curved=1;endArrow=classic;html=1;rounded=0;" edge="1" parent="1" source="z0jYmmz8D5tQBdlxhoIj-6" target="z0jYmmz8D5tQBdlxhoIj-10">
          <mxGeometry width="50" height="50" relative="1" as="geometry">
            <mxPoint x="120" y="600" as="sourcePoint" />
            <mxPoint x="170" y="550" as="targetPoint" />
            <Array as="points">
              <mxPoint x="130" y="590" />
            </Array>
          </mxGeometry>
        </mxCell>
        <mxCell id="z0jYmmz8D5tQBdlxhoIj-12" value="&lt;div&gt;if(transmit_cnt = TRANSMIT_CNT_MAX) /&lt;/div&gt;&lt;div&gt;axis_shift_reg(curr_mag) &amp;lt;= axis_shift_reg(curr_mag)(1 downto 0) &amp;amp; curr_axis_wr&lt;/div&gt;" style="text;html=1;align=center;verticalAlign=middle;resizable=0;points=[];autosize=1;strokeColor=none;fillColor=none;rotation=-15;" vertex="1" parent="1">
          <mxGeometry x="-260" y="620" width="450" height="30" as="geometry" />
        </mxCell>
        <mxCell id="z0jYmmz8D5tQBdlxhoIj-13" value="spi_irq_int &amp;lt;= &#39;0&#39;" style="text;html=1;align=center;verticalAlign=middle;resizable=0;points=[];autosize=1;strokeColor=none;fillColor=none;" vertex="1" parent="1">
          <mxGeometry x="190" y="210" width="100" height="20" as="geometry" />
        </mxCell>
        <mxCell id="z0jYmmz8D5tQBdlxhoIj-14" value="spi_irq_int &amp;lt;= &#39;0&#39;" style="text;html=1;align=center;verticalAlign=middle;resizable=0;points=[];autosize=1;strokeColor=none;fillColor=none;" vertex="1" parent="1">
          <mxGeometry x="490" y="390" width="100" height="20" as="geometry" />
        </mxCell>
        <mxCell id="z0jYmmz8D5tQBdlxhoIj-15" value="spi_irq_int &amp;lt;= &#39;0&#39;" style="text;html=1;align=center;verticalAlign=middle;resizable=0;points=[];autosize=1;strokeColor=none;fillColor=none;" vertex="1" parent="1">
          <mxGeometry x="230" y="500" width="100" height="20" as="geometry" />
        </mxCell>
        <mxCell id="z0jYmmz8D5tQBdlxhoIj-16" value="spi_irq_int &amp;lt;= &#39;1&#39;" style="text;html=1;align=center;verticalAlign=middle;resizable=0;points=[];autosize=1;strokeColor=none;fillColor=none;" vertex="1" parent="1">
          <mxGeometry x="-100" y="510" width="100" height="20" as="geometry" />
        </mxCell>
        <mxCell id="z0jYmmz8D5tQBdlxhoIj-17" value="1" style="text;html=1;align=center;verticalAlign=middle;resizable=0;points=[];autosize=1;strokeColor=none;fillColor=none;" vertex="1" parent="1">
          <mxGeometry x="220" y="550" width="20" height="20" as="geometry" />
        </mxCell>
        <mxCell id="z0jYmmz8D5tQBdlxhoIj-18" value="2" style="text;html=1;align=center;verticalAlign=middle;resizable=0;points=[];autosize=1;strokeColor=none;fillColor=none;" vertex="1" parent="1">
          <mxGeometry x="280" y="600" width="20" height="20" as="geometry" />
        </mxCell>
        <mxCell id="z0jYmmz8D5tQBdlxhoIj-19" value="" style="curved=1;endArrow=classic;html=1;rounded=0;" edge="1" parent="1" source="z0jYmmz8D5tQBdlxhoIj-10" target="z0jYmmz8D5tQBdlxhoIj-2">
          <mxGeometry width="50" height="50" relative="1" as="geometry">
            <mxPoint x="40" y="450" as="sourcePoint" />
            <mxPoint x="90" y="400" as="targetPoint" />
            <Array as="points">
              <mxPoint x="140" y="370" />
            </Array>
          </mxGeometry>
        </mxCell>
        <mxCell id="z0jYmmz8D5tQBdlxhoIj-20" value="/ " style="text;html=1;align=center;verticalAlign=middle;resizable=0;points=[];autosize=1;strokeColor=none;fillColor=none;" vertex="1" parent="1">
          <mxGeometry x="170" y="380" width="20" height="20" as="geometry" />
        </mxCell>
        <mxCell id="z0jYmmz8D5tQBdlxhoIj-21" value="&lt;div&gt;/ transmit_cnt &amp;lt;= 0&lt;/div&gt;&lt;div&gt;data_high_out &amp;lt;= (others =&amp;gt; &#39;0&#39;)&lt;/div&gt;&lt;div&gt;axis_shift_reg &amp;lt;= (others =&amp;gt; (others =&amp;gt; &#39;0&#39;))&lt;br&gt;&lt;/div&gt;" style="text;html=1;align=center;verticalAlign=middle;resizable=0;points=[];autosize=1;strokeColor=none;fillColor=none;" vertex="1" parent="1">
          <mxGeometry x="330" y="255" width="250" height="50" as="geometry" />
        </mxCell>
      </root>
    </mxGraphModel>
  </diagram>
</mxfile>
